<?xml version="1.0" encoding="UTF-8"?>
<svg xmlns="http://www.w3.org/2000/svg" width="64" height="64" viewBox="9 13 90 84">
  <defs>
    <linearGradient id="ink" x1="28" y1="18" x2="80" y2="92" gradientUnits="userSpaceOnUse">
      <stop stop-color="#e0b6ff"/><stop offset="0.55" stop-color="#b56cff"/><stop offset="1" stop-color="#914cff"/>
    </linearGradient>
    <filter id="glow" x="-20%" y="-20%" width="140%" height="140%">
      <feGaussianBlur stdDeviation="0.8" result="blur"/><feMerge><feMergeNode in="blur"/><feMergeNode in="SourceGraphic"/></feMerge>
    </filter>
  </defs>
  <g fill="#17172f" fill-opacity="0.88" stroke="url(#ink)" stroke-width="3.8" stroke-linecap="round" stroke-linejoin="round" filter="url(#glow)">
    <path d="M54 20C36 20 25 32 25 49c0 10-4 16-9 21-3 3-1 8 3 9 4 1 8-2 11-5-1 7 1 13 6 15 4 2 7-2 8-7l1-4c2 8 6 13 11 12 5-1 6-6 6-12 4 6 9 9 14 6 3-2 4-6 3-10 4 3 10 6 14 3 4-3 2-7-1-9-6-4-9-10-9-19 0-17-11-29-29-29z"/>
  </g>
  <g fill="none" stroke="url(#ink)" stroke-width="2.8" stroke-linecap="round">
    <path d="M42 48v10M48 43v20M54 38v30M60 44v18M66 49v9"/>
  </g>
</svg>
