<?xml version="1.0" encoding="UTF-8"?>
<svg xmlns="http://www.w3.org/2000/svg" width="64" height="64" viewBox="8 12 92 84">
  <g fill="none" stroke="#000" stroke-width="3.5" stroke-linecap="round" stroke-linejoin="round">
    <path d="M54 20C36 20 25 32 25 49c0 10-4 16-9 21-3 3-1 8 3 9 4 1 8-2 11-5-1 7 1 13 6 15 4 2 7-2 8-7l1-4c2 8 6 13 11 12 5-1 6-6 6-12 4 6 9 9 14 6 3-2 4-6 3-10 4 3 10 6 14 3 4-3 2-7-1-9-6-4-9-10-9-19 0-17-11-29-29-29z"/>
    <path d="M42 48v10M48 43v20M54 38v30M60 44v18M66 49v9"/>
  </g>
</svg>
